<?xml version="1.0" encoding="UTF-8"?>
<svg version="1.1" xmlns="http://www.w3.org/2000/svg" width="1563" height="1563">
<path d="M0 0 C515.79 0 1031.58 0 1563 0 C1563 515.79 1563 1031.58 1563 1563 C1047.21 1563 531.42 1563 0 1563 C0 1047.21 0 531.42 0 0 Z " fill="#FEFEFE" transform="translate(0,0)"/>
<path d="M0 0 C21.76443721 19.15937371 36.20111469 47.28645867 38.52978516 76.34667969 C40.13693058 113.46566381 34.70518229 148.68610341 8.9765625 177.05957031 C-11.96081683 199.51542946 -43.51406311 214.47559747 -74.39450073 215.7842865 C-78.54550559 215.89840302 -82.6928214 215.92290734 -86.84521484 215.90917969 C-87.72017609 215.90902863 -88.59513733 215.90887756 -89.49661255 215.90872192 C-104.51875827 215.85789685 -118.18170572 214.30174224 -132.47021484 209.34667969 C-133.27910156 209.06872559 -134.08798828 208.79077148 -134.92138672 208.50439453 C-149.14148202 203.45158382 -162.00970962 196.19586607 -173.47021484 186.34667969 C-174.46214844 185.57130859 -174.46214844 185.57130859 -175.47412109 184.78027344 C-199.0096567 165.80920534 -210.06499683 134.04870424 -213.23144531 105.00292969 C-215.95547461 74.69880006 -209.59866475 42.02911797 -190.47021484 17.69433594 C-186.88924874 13.49089721 -183.2555245 9.3677046 -179.47021484 5.34667969 C-178.66197266 4.44175781 -178.66197266 4.44175781 -177.83740234 3.51855469 C-134.04020896 -43.57993468 -46.42295086 -40.11998595 0 0 Z " fill="#A7D501" transform="translate(607.47021484375,767.6533203125)"/>
<path d="M0 0 C18.48 0 36.96 0 56 0 C56 30.69 56 61.38 56 93 C87.35 93 118.7 93 151 93 C151 62.31 151 31.62 151 0 C169.48 0 187.96 0 207 0 C207 78.54 207 157.08 207 238 C188.52 238 170.04 238 151 238 C151 205.33 151 172.66 151 139 C119.65 139 88.3 139 56 139 C56 171.67 56 204.34 56 238 C37.52 238 19.04 238 0 238 C0 159.46 0 80.92 0 0 Z " fill="#A7D501" transform="translate(1136,741)"/>
<path d="M0 0 C19.14 0 38.28 0 58 0 C62.49982929 10.12461591 62.49982929 10.12461591 64.42822266 15.26074219 C64.86558746 16.42156311 65.30295227 17.58238403 65.75357056 18.77838135 C66.2237782 20.03452955 66.69394072 21.29069465 67.1640625 22.546875 C67.66922373 23.89053229 68.17463228 25.23409663 68.68026733 26.57757568 C69.76333427 29.45681624 70.84473482 32.33667486 71.92480469 35.21704102 C73.65553371 39.83254762 75.38998676 44.44664934 77.125 49.06054688 C79.24390309 54.69600165 81.36196738 60.3317702 83.4789238 65.96795654 C87.17533049 75.80900074 90.8782697 85.64756832 94.5859375 95.484375 C94.85189539 96.18998943 95.11785328 96.89560387 95.3918705 97.62260056 C96.46224824 100.46232877 97.53267854 103.30203716 98.60319233 106.1417141 C100.47028389 111.09443969 102.33677192 116.04739237 104.20288086 121.00048828 C109.25398831 134.40717597 114.30627848 147.8134156 119.36178589 161.21844482 C121.44349006 166.73825165 123.52472693 172.25823464 125.60586357 177.77825546 C127.01980961 181.52850636 128.43401578 185.2786587 129.84887695 189.02856445 C132.81755231 196.89698789 135.78208873 204.76692839 138.73773193 212.64025879 C139.55158785 214.80647476 140.36694514 216.97212754 141.18414307 219.13708496 C142.20683726 221.84748761 143.22358177 224.56003398 144.23828125 227.2734375 C144.67142891 228.41530014 144.67142891 228.41530014 145.11332703 229.58023071 C146.21082217 232.53303131 147 234.82165348 147 238 C127.2 238 107.4 238 87 238 C85.30875 233.400625 83.6175 228.80125 81.875 224.0625 C81.09552002 221.94533569 81.09552002 221.94533569 80.30029297 219.78540039 C76.78663154 210.21562412 73.39363653 200.61530349 70 191 C41.95 190.67 13.9 190.34 -15 190 C-15.33 191.65 -15.66 193.3 -16 195 C-16.46757734 196.51430674 -16.96554703 198.01949952 -17.49047852 199.51489258 C-17.79489868 200.38730591 -18.09931885 201.25971924 -18.41296387 202.15856934 C-18.73172485 203.06143677 -19.05048584 203.9643042 -19.37890625 204.89453125 C-19.67277222 205.73479858 -19.96663818 206.57506592 -20.26940918 207.4407959 C-21.3634679 210.56597331 -22.46332667 213.68911781 -23.5625 216.8125 C-26.016875 223.804375 -28.47125 230.79625 -31 238 C-50.14 238 -69.28 238 -89 238 C-85.6252271 226.75075699 -85.6252271 226.75075699 -83.60595703 221.41943359 C-82.92589096 219.61616104 -82.92589096 219.61616104 -82.23208618 217.77645874 C-81.74071094 216.48376625 -81.24928484 215.19109308 -80.7578125 213.8984375 C-80.23685878 212.52051446 -79.71622705 211.14246965 -79.19589233 209.76431274 C-78.0875001 206.83043011 -76.97707811 203.89732752 -75.86499023 200.96484375 C-74.09729613 196.30338648 -72.33430531 191.64015963 -70.57226562 186.9765625 C-69.97382017 185.39275962 -69.37537045 183.80895836 -68.7769165 182.22515869 C-68.48015266 181.4397596 -68.18338882 180.6543605 -67.87763214 179.84516144 C-66.97440179 177.45522027 -66.07072691 175.06544762 -65.16693115 172.67572021 C-60.33470583 159.89738184 -55.53082831 147.10859298 -50.74090576 134.31433105 C-42.63002661 112.65101102 -34.49133986 90.9981991 -26.33816528 69.35076904 C-25.5216566 67.18250964 -24.70547435 65.01412765 -23.8894043 62.84570312 C-15.99500112 41.87050852 -8.01669766 20.92883775 0 0 Z " fill="#A7D501" transform="translate(744,741)"/>
<path d="M0 0 C5.12872247 -0.38465419 9.60080709 0.28456898 14 3 C17.76527153 8.83009785 18.81731015 16.70442812 17.52172852 23.51367188 C16.71312758 26.13604791 15.78954686 28.68559602 14.8125 31.25 C14.06887282 33.33273441 13.33102895 35.41753895 12.59765625 37.50390625 C12.18660645 38.66809082 11.77555664 39.83227539 11.35205078 41.03173828 C8.59455226 49.0095977 6.21087375 57.11459544 3.75 65.1875 C3.23823648 66.86041256 2.7262773 68.53326529 2.21411133 70.20605469 C0.42972262 76.03747562 -1.35298384 81.86939601 -3.125 87.70458984 C-4.86816589 93.42100066 -6.6868213 99.09711512 -8.63793945 104.74584961 C-13.65226042 119.31166387 -17.15701978 133.6984142 -19 149 C-18.67 148.67 -18.34 148.34 -18 148 C-17.34 147.34 -16.68 146.68 -16 146 C-14.68 146 -13.36 146 -12 146 C-12.375 147.9375 -12.375 147.9375 -13 150 C-13.66 150.33 -14.32 150.66 -15 151 C-14.896875 151.7425 -14.79375 152.485 -14.6875 153.25 C-14.8421875 154.61125 -14.8421875 154.61125 -15 156 C-15.81855469 156.53109375 -16.63710938 157.0621875 -17.48046875 157.609375 C-20.22845776 160.21676922 -20.39121987 160.62854851 -20.6640625 164.1875 C-20.67729818 165.79166491 -20.66342873 167.39624083 -20.625 169 C-20.65400391 170.21042969 -20.65400391 170.21042969 -20.68359375 171.4453125 C-20.65039868 175.46855504 -20.52314683 177.37454032 -17.8828125 180.53125 C-11.9545546 183.55160904 -4.49162635 183.09666574 1.7734375 181.12890625 C3.24987855 180.4593574 4.70801345 179.74603939 6.1328125 178.97265625 C8.08495277 177.95574636 9.85929425 177.47861308 12 177 C14.99142954 175.93163231 16.73736594 175.26263406 19 173 C19.50229156 171.15725567 19.95003067 169.29959681 20.375 167.4375 C27.13081264 143.06653144 42.18837909 115.16721315 62 99 C63.31670105 97.9217766 64.62945096 96.83870339 65.9375 95.75 C66.50339844 95.29109375 67.06929687 94.8321875 67.65234375 94.359375 C69.27017515 92.92837032 69.27017515 92.92837032 70 90 C71.8125 89.12109375 71.8125 89.12109375 74 88.4375 C76.14541038 87.79318716 76.14541038 87.79318716 78 87 C78.33 86.34 78.66 85.68 79 85 C80.0209375 85.2165625 80.0209375 85.2165625 81.0625 85.4375 C84.36273082 86.06945909 87.67144426 86.54313941 91 87 C91.433125 86.175 91.86625 85.35 92.3125 84.5 C92.869375 83.675 93.42625 82.85 94 82 C94.99 82 95.98 82 97 82 C97 82.66 97 83.32 97 84 C97.58007812 84.02578125 98.16015625 84.0515625 98.7578125 84.078125 C104.16439396 84.47068207 107.87815872 85.17975686 112 89 C113.88601357 93.00777883 114.2139612 95.86190876 113.2109375 100.0859375 C113.02305664 100.87798584 112.83517578 101.67003418 112.64160156 102.48608398 C111.77374799 105.88649807 110.83663565 109.26554795 109.89355469 112.64575195 C103.80321656 134.76869237 101.39046461 157.14777066 100 180 C107.12454284 179.00029941 113.65012234 177.7667703 120.25 174.875 C120.91128906 174.59785156 121.57257813 174.32070313 122.25390625 174.03515625 C123.84079155 173.36820446 125.4212001 172.68587209 127 172 C126.84273438 171.11699219 126.68546875 170.23398437 126.5234375 169.32421875 C124.97802539 159.50969857 126.25442993 152.76235617 131 144 C131.99 144 132.98 144 134 144 C133.95875 144.86625 133.9175 145.7325 133.875 146.625 C134.00737041 150.19900111 134.83368195 152.63063675 136 156 C136.73782374 159.32020685 137.37881667 162.65618336 138 166 C139.98 165.67 141.96 165.34 144 165 C143.67 166.65 143.34 168.3 143 170 C142.01 170 141.02 170 140 170 C139.67 170.66 139.34 171.32 139 172 C140.65 171.67 142.3 171.34 144 171 C145.98 175.62 147.96 180.24 150 185 C151.32 184.67 152.64 184.34 154 184 C161.09810412 171.97544968 163.04851679 157.53003388 163.28125 143.828125 C163.30886414 142.56086578 163.30886414 142.56086578 163.33703613 141.26800537 C163.41504959 137.68708838 163.48358843 134.10600923 163.55224609 130.52490234 C163.60404 127.89671793 163.66122274 125.26868918 163.71875 122.640625 C163.73232544 121.83328918 163.74590088 121.02595337 163.7598877 120.19415283 C163.83874915 116.63408059 164.09675381 113.43332264 165 110 C165.06618623 108.66684393 165.08553515 107.33069298 165.0625 105.99609375 C165.05476563 105.25552734 165.04703125 104.51496094 165.0390625 103.75195312 C165.02617187 102.98818359 165.01328125 102.22441406 165 101.4375 C164.86510791 93.40467626 164.86510791 93.40467626 166 90 C166.1546199 87.68929146 166.27471563 85.37620359 166.375 83.0625 C166.80790001 75.13724812 167.51236942 66.73144586 172 60 C184.49578476 59.83979763 194.83364182 64.65471061 204 73 C205.1875 75.5 205.1875 75.5 206 78 C206.7734375 79.04027344 206.7734375 79.04027344 207.5625 80.1015625 C209.5746071 84.15858279 209.17283096 87.44183727 208.8125 91.875 C208.76802734 92.65230469 208.72355469 93.42960938 208.67773438 94.23046875 C207.85256876 106.35327221 207.85256876 106.35327221 204.3125 109.5 C199.27081212 110.59009468 194.58964277 109.08620126 190 107 C189.13976578 111.51797102 188.82657048 115.86537621 188.71875 120.4609375 C188.69113586 121.5232811 188.69113586 121.5232811 188.66296387 122.60708618 C188.60466902 124.86297922 188.55181314 127.11894949 188.5 129.375 C187.78756861 159.66332128 187.78756861 159.66332128 185.6875 173.25 C185.49293213 174.51312012 185.49293213 174.51312012 185.29443359 175.80175781 C183.4711136 186.95593395 180.54673955 197.31459196 172.5 205.5625 C166.82396967 207.89372674 161.88677558 207.58002923 156 206 C145.70451655 200.36051511 137.31822221 191.41485183 132 181 C131.34 181.66 130.68 182.32 130 183 C130 183.66 130 184.32 130 185 C129.34773438 185.31453125 128.69546875 185.6290625 128.0234375 185.953125 C127.14945312 186.38109375 126.27546875 186.8090625 125.375 187.25 C124.08722656 187.87648438 124.08722656 187.87648438 122.7734375 188.515625 C119.89432474 189.96775453 119.89432474 189.96775453 117.1328125 192.140625 C113.32729778 194.39925967 110.89796872 194.53575584 106.5 194.5 C104.59734375 194.51546875 104.59734375 194.51546875 102.65625 194.53125 C95.00746405 193.41988794 90.4343667 187.88597553 86 182 C79.91861099 173.49150955 79.02752813 166.19917257 79 156 C78.63350342 156.56807373 78.26700684 157.13614746 77.8894043 157.72143555 C56.06874849 191.39352226 56.06874849 191.39352226 45.21875 194.8984375 C35.93220512 196.5262514 35.93220512 196.5262514 31 194 C30.319375 193.4225 29.63875 192.845 28.9375 192.25 C28.298125 191.8375 27.65875 191.425 27 191 C22.90763355 192.19912611 20.05693575 194.36992244 16.75 197 C11.80412678 200.64016269 8.1072464 202.5392607 2 203 C1.00097656 203.09152344 0.00195312 203.18304687 -1.02734375 203.27734375 C-11.09675817 203.76824267 -19.4704934 201.1421049 -27.375 194.8125 C-32.37813943 190.04959482 -36.6306021 183.84698952 -38 177 C-38.66 177 -39.32 177 -40 177 C-40 177.66 -40 178.32 -40 179 C-41.74553555 180.13669755 -43.55011526 181.18312389 -45.375 182.1875 C-50.50874509 185.08283491 -55.29520073 188.22219471 -60.0390625 191.71484375 C-62 193 -62 193 -64 193 C-64.33 194.32 -64.66 195.64 -65 197 C-66.32 197 -67.64 197 -69 197 C-69 197.66 -69 198.32 -69 199 C-71.60311992 199.67099984 -74.20735398 200.33695338 -76.8125 201 C-77.55048828 201.19078125 -78.28847656 201.3815625 -79.04882812 201.578125 C-82.10535341 202.35262914 -84.83373478 203 -88 203 C-88 203.66 -88 204.32 -88 205 C-102.89284295 205.75300891 -108.82413262 202.33449282 -120 193 C-120.83402344 192.38769531 -121.66804688 191.77539062 -122.52734375 191.14453125 C-125.40674033 188.64723469 -127.37454864 185.88992393 -129.375 182.6875 C-129.76002686 182.07720947 -130.14505371 181.46691895 -130.54174805 180.83813477 C-144.5372337 158.12765991 -148.73111906 135.30175343 -142.73828125 109.30078125 C-138.61619118 92.44997814 -132.88949056 77.09502467 -124.89013672 61.73339844 C-123.70747431 59.43035316 -122.60967428 57.08890943 -121.5 54.75 C-112.60352417 37.07449356 -98.51670254 18.27611355 -83 6 C-81.700625 4.7625 -81.700625 4.7625 -80.375 3.5 C-74.21537157 0.76238736 -67.74166196 2.80947119 -61.5078125 4.79296875 C-53.35454983 8.11520568 -45.15524972 13.05082663 -41 21 C-39.97767121 24.06698637 -39.8340951 26.28664878 -39.8125 29.5 C-39.79832031 30.4590625 -39.78414063 31.418125 -39.76953125 32.40625 C-40 35 -40 35 -42 38 C-42.47660124 39.55102023 -42.91025944 41.11555375 -43.3125 42.6875 C-45.06484867 48.77179692 -47.95184979 54.94674071 -53 59 C-55.72507798 59.39078556 -58.23121956 59.13616953 -61 59 C-61 58.34 -61 57.68 -61 57 C-61.5775 56.9175 -62.155 56.835 -62.75 56.75 C-65.81664337 55.72778554 -67.12359684 54.64086371 -69 52 C-69 46.63658539 -66.98511015 42.33428276 -64.921875 37.4453125 C-63.72224928 34.26325445 -63.29363338 31.37678386 -63 28 C-70.59668442 31.91344349 -75.69547827 38.44059119 -80.125 45.5625 C-80.58527588 46.29807129 -81.04555176 47.03364258 -81.51977539 47.79150391 C-82.50738308 49.3771565 -83.49075538 50.96545368 -84.47021484 52.55615234 C-85.9950939 54.99216245 -87.57955859 57.37981624 -89.17578125 59.76953125 C-107.04098174 87.27882554 -122.74299298 131.20900637 -115.796875 164.25 C-113.78090044 171.20708866 -111.72398742 178.25420158 -106 183 C-97.55200257 184.70900726 -89.30548842 182.03250126 -81.375 179.3125 C-80.32054687 178.97283203 -79.26609375 178.63316406 -78.1796875 178.28320312 C-72.15270118 176.28788278 -66.5447767 173.94188367 -60.94775391 170.94213867 C-59 170 -59 170 -57 170 C-57 169.34 -57 168.68 -57 168 C-50.565 164.535 -50.565 164.535 -44 161 C-44.05220703 159.39898438 -44.05220703 159.39898438 -44.10546875 157.765625 C-44.50831125 140.06673972 -41.36802905 123.71233021 -37 106.625 C-36.82678223 105.94297516 -36.65356445 105.26095032 -36.47509766 104.55825806 C-35.97152803 102.59105572 -35.45686374 100.62714809 -34.9375 98.6640625 C-34.63714844 97.52404785 -34.33679688 96.3840332 -34.02734375 95.20947266 C-32.9776275 91.93010722 -31.54597556 89.0696597 -30 86 C-29.35854522 83.79378213 -29.35854522 83.79378213 -29.03515625 81.61328125 C-28.88103271 80.774021 -28.72690918 79.93476074 -28.56811523 79.07006836 C-28.31783569 77.70507202 -28.31783569 77.70507202 -28.0625 76.3125 C-25.87900238 65.38408987 -22.54643345 54.95918971 -18.9375 44.4375 C-18.54547897 43.28056137 -18.54547897 43.28056137 -18.14553833 42.10025024 C-17.38799557 39.87403298 -16.61682498 37.65309286 -15.83984375 35.43359375 C-15.61384491 34.77191193 -15.38784607 34.1102301 -15.15499878 33.42849731 C-13.62993603 29.16025545 -11.608649 25.69199498 -9 22 C-5.35557472 14.9336289 -2.59768094 7.50279915 0 0 Z " fill="#45B02C" transform="translate(321,518)"/>
<path d="M0 0 C0.45246094 0.40089844 0.90492188 0.80179688 1.37109375 1.21484375 C0.62021344 6.21330734 -1.22072826 10.75420943 -3.0078125 15.453125 C-3.33933823 16.33389206 -3.67086395 17.21465912 -4.01243591 18.12211609 C-5.06848905 20.92523353 -6.1298692 23.72629907 -7.19140625 26.52734375 C-7.90985787 28.4315076 -8.62796085 30.33580304 -9.34570312 32.24023438 C-11.10273406 36.89997209 -12.86454415 41.55787723 -14.62890625 46.21484375 C-18.27778638 46.21484375 -19.02399443 45.39001466 -21.87890625 43.21484375 C-26.20042537 40.09268897 -30.61587994 37.45623933 -35.31640625 34.96484375 C-35.93354492 34.63613281 -36.55068359 34.30742188 -37.18652344 33.96875 C-57.0602883 23.57030389 -80.07311135 20.96309249 -101.59472656 27.52148438 C-118.07135424 33.13761767 -131.34559397 43.94079051 -139.31640625 59.44921875 C-145.03077376 71.49020743 -146.97431492 81.57433399 -146.94140625 94.90234375 C-146.95751953 96.18818359 -146.97363281 97.47402344 -146.99023438 98.79882812 C-147.00001926 118.16312083 -140.92399508 136.02509442 -127.65625 150.34375 C-125.72581408 152.11562855 -123.74884493 153.67555004 -121.62890625 155.21484375 C-120.48421875 156.08689453 -120.48421875 156.08689453 -119.31640625 156.9765625 C-103.26168153 168.2589224 -83.17903201 171.13777285 -64.06640625 168.46484375 C-61.91499412 168.07801349 -59.76895656 167.66026092 -57.62890625 167.21484375 C-56.448125 166.96992187 -55.26734375 166.725 -54.05078125 166.47265625 C-39.52189131 163.03800235 -27.34881675 156.34223291 -15.62890625 147.21484375 C-14.63890625 146.55484375 -13.64890625 145.89484375 -12.62890625 145.21484375 C-8.5705358 152.97575045 -5.04803497 160.93177842 -1.64257812 168.99414062 C-0.74477447 171.11137869 0.16860301 173.22149536 1.08203125 175.33203125 C1.6559176 176.68578726 2.22886938 178.03993992 2.80078125 179.39453125 C3.07461639 180.02060272 3.34845154 180.64667419 3.63058472 181.29171753 C4.686541 183.83452158 5.41801893 185.75277734 5.13671875 188.52270508 C0.0343483 199.79965967 -19.11752589 207.57781017 -29.62890625 212.21484375 C-33.91348836 213.75808219 -38.23471971 215.02498216 -42.62890625 216.21484375 C-43.61117188 216.50230469 -44.5934375 216.78976562 -45.60546875 217.0859375 C-53.59896908 219.38709669 -61.2597264 220.36921325 -69.57421875 220.3828125 C-70.30655731 220.3861409 -71.03889587 220.3894693 -71.79342651 220.39289856 C-73.33460876 220.39792667 -74.87580174 220.40030817 -76.41699219 220.40014648 C-78.72740509 220.40231883 -81.03732835 220.42047966 -83.34765625 220.43945312 C-95.46834481 220.48663524 -107.35183886 219.6243768 -119.00390625 216.02734375 C-119.70741211 215.81376221 -120.41091797 215.60018066 -121.13574219 215.38012695 C-150.78770728 206.04855695 -176.14098659 186.96110766 -190.91625977 159.34545898 C-195.21991495 150.92570968 -198.24789843 142.34871875 -200.62890625 133.21484375 C-200.82500488 132.51568848 -201.02110352 131.8165332 -201.22314453 131.09619141 C-210.38559123 97.73529593 -204.86087596 61.68527172 -188.12890625 31.77734375 C-184.98806417 26.60090023 -181.51301687 21.85372696 -177.62890625 17.21484375 C-177.05914063 16.49941406 -176.489375 15.78398438 -175.90234375 15.046875 C-157.02956036 -7.64061993 -126.40774163 -21.04639026 -97.55078125 -24.50390625 C-63.92821135 -26.91508656 -26.7455673 -22.29639921 0 0 Z " fill="#A7D501" transform="translate(1104.62890625,762.78515625)"/>
<path d="M0 0 C2.36060571 1.96923886 4.68800689 3.9739967 7 6 C-4.89438718 38.51428851 -4.89438718 38.51428851 -10 52 C-10.42667969 51.6596875 -10.85335937 51.319375 -11.29296875 50.96875 C-31.92095923 34.97674088 -56.23835428 25.26484654 -82.71484375 28.3125 C-85.18839106 28.76150697 -87.57472923 29.33822069 -90 30 C-91.02738281 30.268125 -92.05476563 30.53625 -93.11328125 30.8125 C-105.59801848 34.33345997 -114.81543025 39.86419788 -124 49 C-124.55300781 49.51820313 -125.10601562 50.03640625 -125.67578125 50.5703125 C-139.62741354 64.93560505 -142.35124264 85.93368337 -142.1484375 104.8984375 C-141.71687176 124.44624306 -134.06844382 142.42128049 -120 156 C-104.75270265 169.22373628 -85.87880052 174.18496447 -66 173 C-46.41085835 171.23167227 -25.53558853 165.66837228 -11.28515625 151.25390625 C-9 149 -9 149 -7 149 C-4.37794178 154.8986836 -1.78038188 160.80770455 0.80029297 166.72460938 C1.68137925 168.73685066 2.56807876 170.74664369 3.46044922 172.75390625 C4.74103093 175.63699567 6.00127139 178.52824195 7.2578125 181.421875 C7.6618631 182.31992859 8.0659137 183.21798218 8.48220825 184.14324951 C8.84273285 184.98381897 9.20325745 185.82438843 9.57470703 186.69042969 C9.89891632 187.42767273 10.22312561 188.16491577 10.55715942 188.92449951 C11 191 11 191 10.25534058 193.11431885 C1.87299341 205.70567004 -17.20012007 213.61660671 -30.9375 218.375 C-31.57913086 218.6016333 -32.22076172 218.8282666 -32.88183594 219.06176758 C-46.81415451 223.53808888 -61.52363833 224.61758449 -76.0625 224.5625 C-76.85960388 224.5620166 -77.65670776 224.5615332 -78.47796631 224.56103516 C-92.9373566 224.50054917 -106.2516649 222.69724339 -120 218 C-120.85674316 217.71092773 -121.71348633 217.42185547 -122.59619141 217.12402344 C-151.55798401 206.97756418 -174.28329137 186.24063521 -187.7734375 158.8671875 C-191.25497021 151.45822604 -193.87350352 143.89737425 -196 136 C-196.33902344 134.77539062 -196.67804688 133.55078125 -197.02734375 132.2890625 C-201.50240864 112.28531622 -201.36356941 86.79171571 -196 67 C-195.80132324 66.26475098 -195.60264648 65.52950195 -195.39794922 64.77197266 C-189.76085763 44.75290805 -179.46735885 27.95529675 -165 13 C-164.28714844 12.26136719 -163.57429688 11.52273438 -162.83984375 10.76171875 C-122.57882182 -28.11813605 -44.98816393 -33.77638013 0 0 Z " fill="#A7D501" transform="translate(370,759)"/>
<path d="M0 0 C16.19992626 12.35704603 25.48398213 29.9820771 28.25 50.125 C30.1084896 71.32523653 26.30622769 94.24812839 12.76953125 111.23828125 C0.36152054 125.60990925 -16.00240993 134.37393126 -34.96826172 136.35693359 C-53.07747269 137.6046232 -71.65755738 133.25170268 -85.63720703 121.16455078 C-100.48335605 107.61831654 -109.89486706 90.01673003 -110.86376953 69.74462891 C-111.53462998 47.27713262 -108.59473804 25.4822756 -92.53491211 8.37133789 C-67.78341985 -16.76597371 -28.89716037 -20.31035152 0 0 Z " fill="#FEFEFD" transform="translate(561.75,797.875)"/>
<path d="M0 0 C3.86788058 2.27027773 6.31911441 4.84201985 8 9 C9.74463904 20.99971246 5.07462089 33.59377831 0.81640625 44.6484375 C-0.27034983 47.77871098 -0.70733856 50.7075588 -1 54 C4.5626346 49.84302345 8.35737832 44.89516903 12.4375 39.3125 C13.06720703 38.46494141 13.69691406 37.61738281 14.34570312 36.74414062 C18.20217778 31.53221826 18.20217778 31.53221826 21.83178711 26.16162109 C22.42096924 25.25621582 23.01015137 24.35081055 23.6171875 23.41796875 C24.3903833 22.18276489 24.3903833 22.18276489 25.17919922 20.92260742 C27.57333639 18.39460659 29.26912373 18.24889369 32.6875 18 C40.36734173 18.71395514 47.67494546 21.2644449 52.8984375 27.1328125 C56.75540503 33.589504 56.2483807 39.64714591 55.2734375 46.88720703 C54.84851772 50.17047115 54.53485238 53.46426593 54.20336914 56.75805664 C53.82242871 60.50764388 53.41138055 64.25364117 53 68 C52.34 68 51.68 68 51 68 C51 70.64 51 73.28 51 76 C53.46229997 75.28254644 53.46229997 75.28254644 56 74 C56.2784375 73.44054687 56.556875 72.88109375 56.84375 72.3046875 C58.45492057 69.09323265 60.78206406 66.56648821 63.125 63.875 C64.13122945 62.7026986 65.13643186 61.52951492 66.140625 60.35546875 C66.87829102 59.49381104 66.87829102 59.49381104 67.63085938 58.61474609 C69.42020987 56.50441011 71.15382001 54.35368593 72.875 52.1875 C73.50019531 51.41019531 74.12539063 50.63289062 74.76953125 49.83203125 C76.59232014 47.51763204 78.36845788 45.17997313 80.13671875 42.82421875 C81.27823738 41.34083143 82.42016589 39.85775943 83.5625 38.375 C84.09278809 37.65078857 84.62307617 36.92657715 85.16943359 36.18041992 C89.1080502 31.12940204 89.1080502 31.12940204 93.76953125 30.453125 C97.20331849 31.03441909 98.42376982 31.76726718 101 34 C102.2065625 34.433125 102.2065625 34.433125 103.4375 34.875 C108.03917753 36.89524867 110.4336558 39.96495715 112.8125 44.3125 C114.78473132 50.43679724 114.13902216 55.32141939 113 61.5 C111.89977622 68.1325547 111.80844674 74.65874138 111.8125 81.375 C111.8115332 82.92670898 111.8115332 82.92670898 111.81054688 84.50976562 C111.84807253 89.77359106 112.08693607 94.81379685 113 100 C120.93285519 100.36801906 127.5345605 99.77476512 135 97 C135.45670351 106.65843345 135.45670351 106.65843345 134 110.9375 C130.14205117 114.91600973 125.59283783 117.22425009 120 117.3125 C118.66569366 117.22164256 117.33222023 117.11754884 116 117 C114.72125 117 113.4425 117 112.125 117 C105.58622235 116.08431319 100.68980871 110.9254124 96.39453125 106.25390625 C89.72781783 97.04358525 88.41703997 83.00985513 88 72 C85.07421391 74.82344377 83.07506972 77.51011002 81 81 C80.01 81.495 80.01 81.495 79 82 C78.06044944 83.3955401 77.12516452 84.79417104 76.21337891 86.20800781 C73.91974953 89.59537997 71.28086288 92.71505142 68.6875 95.875 C68.10718018 96.58390381 67.52686035 97.29280762 66.92895508 98.02319336 C65.29040775 100.01917509 63.64653939 102.01060931 62 104 C61.29875 104.84949219 60.5975 105.69898438 59.875 106.57421875 C48.78286204 119.64342759 48.78286204 119.64342759 42 121 C33.60554711 121 28.50203598 116.95593881 22.26953125 111.6953125 C18.70190571 107.45837339 19.33298457 104.00473264 19.49609375 98.6484375 C20.05866231 92.11918909 21.59037867 85.74266397 23.13232422 79.38525391 C24.68866416 72.92503852 25.5756209 66.63223199 26 60 C18.92437257 66.85451407 12.6798875 74.26819279 6.75 82.125 C6.24267334 82.79378174 5.73534668 83.46256348 5.21264648 84.15161133 C2.87990587 87.27798459 0.71133369 90.39106219 -1.1953125 93.796875 C-2.56747562 96.23231603 -3.75165303 98.10661972 -5.625 100.125 C-8.04534464 102.73864187 -8.04534464 102.73864187 -8.87890625 105.33203125 C-10.23993418 108.57099319 -12.07486937 110.85853963 -14.3125 113.5625 C-15.07175781 114.49191406 -15.83101562 115.42132812 -16.61328125 116.37890625 C-19.62827997 119.68997685 -22.28444266 122.35000623 -26.515625 123.953125 C-29.90201096 124.01701907 -31.16632959 122.88282859 -33.75 120.75 C-34.52859375 120.12609375 -35.3071875 119.5021875 -36.109375 118.859375 C-39.81635303 115.21366933 -39.31346351 110.51887373 -39.375 105.625 C-39.38366985 87.37497015 -33.05864691 70.53078319 -27.01049805 53.54223633 C-22.94030587 42.09659068 -19.39466748 30.6077134 -17 18.6875 C-15.66153363 12.36964397 -14.11771139 6.71580421 -11 1 C-7.53512745 -0.73243627 -3.78856385 -0.47274974 0 0 Z " fill="#44B02C" transform="translate(892,591)"/>
<path d="M0 0 C4.8643958 2.49219519 8.65076172 6.85774682 12.05859375 11.0546875 C12.05859375 11.7146875 12.05859375 12.3746875 12.05859375 13.0546875 C12.63738281 13.09980469 13.21617187 13.14492188 13.8125 13.19140625 C18.94210793 15.16295991 21.48464439 22.36487564 24.05859375 27.0546875 C24.86490234 28.47201172 24.86490234 28.47201172 25.6875 29.91796875 C30.57220108 39.75695355 30.68922416 51.20891315 28.171875 61.77734375 C21.71350317 79.77925062 8.11752816 93.35680336 -5.28149414 106.42016602 C-6.76903749 107.88495536 -8.2228596 109.38380578 -9.671875 110.88671875 C-14.35369081 115.35902129 -19.62429512 116.2670566 -25.87890625 116.6171875 C-33.78598437 116.41751381 -38.13622293 112.55495959 -43.81640625 107.4921875 C-45.87397939 105.13203007 -47.36873213 102.75070027 -48.94140625 100.0546875 C-49.60140625 99.7246875 -50.26140625 99.3946875 -50.94140625 99.0546875 C-51.57421875 97.26953125 -51.57421875 97.26953125 -52.06640625 94.9921875 C-52.31777344 93.89197266 -52.31777344 93.89197266 -52.57421875 92.76953125 C-53.47264511 86.12691079 -52.89736525 80.50579203 -50.94140625 74.1171875 C-50.72572998 73.39499023 -50.51005371 72.67279297 -50.2878418 71.92871094 C-47.85965161 64.19391866 -44.37923516 57.00616371 -40.7644043 49.76904297 C-40.07300066 48.32880673 -39.46888242 46.84712661 -38.88671875 45.359375 C-37.84355424 42.81612269 -36.54107112 40.70609959 -35.00390625 38.4296875 C-34.49988281 37.67429687 -33.99585938 36.91890625 -33.4765625 36.140625 C-32.07697925 34.23890119 -30.65385875 32.67124266 -28.94140625 31.0546875 C-28.11640625 30.2296875 -27.29140625 29.4046875 -26.44140625 28.5546875 C-25.06577508 27.17905633 -23.66849157 25.82076063 -22.19140625 24.5546875 C-20.49744916 22.521939 -20.29033266 20.63674293 -19.94140625 18.0546875 C-21.92140625 18.0546875 -23.90140625 18.0546875 -25.94140625 18.0546875 C-24.96846556 12.64946145 -23.49195754 9.85274381 -19.12890625 6.48046875 C-13.59000924 2.87029481 -6.85998943 -1.39766936 0 0 Z " fill="#44B02C" transform="translate(824.94140625,598.9453125)"/>
<path d="M0 0 C3.88344726 1.89485444 6.81591858 4.55451816 9.265625 8.10546875 C9.94921875 10.33203125 9.94921875 10.33203125 10.265625 12.10546875 C10.83410156 12.1415625 11.40257812 12.17765625 11.98828125 12.21484375 C15.43704612 13.56358885 16.83175552 16.32226897 18.703125 19.35546875 C19.09491943 19.98372559 19.48671387 20.61198242 19.89038086 21.25927734 C26.87780168 32.7936542 30.08447271 43.29704493 27.515625 56.73046875 C23.9934425 70.16783623 16.78507554 80.77193864 7.359375 90.859375 C5.54249995 92.80844805 3.83268931 94.79889059 2.140625 96.85546875 C-0.36944347 99.83529863 -3.15262181 102.25216164 -6.21875 104.6484375 C-7.85583812 106.04887072 -7.85583812 106.04887072 -8.6953125 108.14453125 C-9.99009565 110.58806938 -11.12583546 111.14491745 -13.609375 112.29296875 C-14.28742187 112.61652344 -14.96546875 112.94007813 -15.6640625 113.2734375 C-21.50598052 115.6212272 -27.51614243 115.925713 -33.734375 115.10546875 C-41.10535413 111.91652718 -46.28289356 106.25496603 -49.734375 99.10546875 C-50.25 98.58984375 -50.765625 98.07421875 -51.296875 97.54296875 C-54.22081244 94.61903131 -53.92765633 91.06737758 -53.984375 87.16796875 C-53.8143187 74.3003757 -49.09564725 63.78618681 -43.7565918 52.32568359 C-42.3617543 49.29615119 -41.03127988 46.23934471 -39.70458984 43.17944336 C-36.47868013 36.28359459 -32.3564222 30.69264532 -26.109375 26.23046875 C-23.00171262 23.44992872 -22.15588882 20.99592763 -20.734375 17.10546875 C-22.714375 17.10546875 -24.694375 17.10546875 -26.734375 17.10546875 C-25.61806637 11.01651259 -24.96182317 8.77204507 -19.734375 5.10546875 C-13.29128463 0.96803872 -7.67883811 -2.24172532 0 0 Z " fill="#45B02C" transform="translate(745.734375,599.89453125)"/>
<path d="M0 0 C11.35749495 0.55834208 19.2887566 5.310943 27.8828125 12.47265625 C33.50885137 19.03636826 33.910388 23.88360504 33.3203125 32.28515625 C33.2594043 33.73631836 33.2594043 33.73631836 33.19726562 35.21679688 C32.89600168 40.51976832 32.37978291 44.67114757 29.3828125 49.22265625 C26.57365776 50.62723362 24.49470716 50.47160782 21.3828125 50.22265625 C20.02659005 49.25392593 18.68864197 48.2583141 17.3828125 47.22265625 C15.8978125 47.71765625 15.8978125 47.71765625 14.3828125 48.22265625 C13.67955783 55.05307985 13.29051193 61.85272544 13.171875 68.71484375 C13.15881821 69.46625641 13.14576141 70.21766907 13.13230896 70.99185181 C13.10555348 72.55631342 13.0788981 74.12077676 13.05233765 75.6852417 C12.78172318 90.34738928 12.23939629 104.79438014 9.3828125 119.22265625 C9.23972656 119.94549805 9.09664062 120.66833984 8.94921875 121.41308594 C7.09636449 130.2879299 4.61940477 140.22136267 -2.90234375 145.96875 C-8.38910936 148.5029252 -13.88974882 147.66933848 -19.6171875 146.22265625 C-34.23075776 139.02361727 -43.34092213 123.80718785 -48.78515625 109.05859375 C-51.12022587 101.09962405 -49.15933725 95.13371512 -46.00390625 87.62890625 C-44.6171875 85.22265625 -44.6171875 85.22265625 -41.6171875 84.22265625 C-41.9471875 86.20265625 -42.2771875 88.18265625 -42.6171875 90.22265625 C-41.6271875 90.55265625 -40.6371875 90.88265625 -39.6171875 91.22265625 C-39.49601563 92.19847656 -39.37484375 93.17429687 -39.25 94.1796875 C-39.08242188 95.45199219 -38.91484375 96.72429687 -38.7421875 98.03515625 C-38.57976563 99.29972656 -38.41734375 100.56429687 -38.25 101.8671875 C-37.82150297 105.33964942 -37.82150297 105.33964942 -35.6171875 108.22265625 C-35.6171875 109.54265625 -35.6171875 110.86265625 -35.6171875 112.22265625 C-33.6371875 111.72765625 -33.6371875 111.72765625 -31.6171875 111.22265625 C-31.36324219 111.81433594 -31.10929688 112.40601563 -30.84765625 113.015625 C-28.99937415 117.25905919 -27.13400345 121.32159154 -24.6171875 125.22265625 C-21.83528468 124.20675968 -20.76934705 123.47956019 -19.23828125 120.89453125 C-12.96286969 105.40275619 -11.68165307 89.95281349 -11.15234375 73.4140625 C-11.07375904 71.17902972 -10.99497656 68.94400389 -10.91601562 66.70898438 C-10.79735142 63.26089997 -10.68059239 59.81277794 -10.56762695 56.36450195 C-10.18418219 44.78879542 -9.752766 33.2277449 -8.73828125 21.6875 C-8.63919212 20.46432823 -8.63919212 20.46432823 -8.5381012 19.21644592 C-6.7365074 0.57310585 -6.7365074 0.57310585 0 0 Z " fill="#44B02C" transform="translate(581.6171875,577.77734375)"/>
<path d="M0 0 C4.77347344 0.28640841 8.13802658 1.02882481 11.71484375 4.3671875 C16.46006563 10.39607122 16.60162176 18.6506083 17 26 C17.44988281 25.49210938 17.89976562 24.98421875 18.36328125 24.4609375 C23.61930667 18.83625298 29.10491987 15.35467703 36 12 C36.66 11.67 37.32 11.34 38 11 C47.52050125 9.44603389 56.12448877 13.39678593 64.12109375 18.30078125 C67.56769443 20.9394506 69.53451899 23.94837603 71 28 C70.80150466 31.37442079 69.30087039 33.57435356 67 36 C64.30078125 36.390625 64.30078125 36.390625 61.3125 36.25 C60.31863281 36.21390625 59.32476563 36.1778125 58.30078125 36.140625 C57.54152344 36.09421875 56.78226563 36.0478125 56 36 C55.505 32.535 55.505 32.535 55 29 C44.88075757 33.70083476 38.24980208 41.49301849 31.91015625 50.3984375 C30 53 30 53 28.30859375 54.6640625 C26.72975624 56.08082788 26.72975624 56.08082788 26 59 C25.34 59 24.68 59 24 59 C24.33 59.99 24.66 60.98 25 62 C24.01 62.33 23.02 62.66 22 63 C22.495 64.485 22.495 64.485 23 66 C22.109375 67.796875 22.109375 67.796875 20.75 69.75 C18.9936781 72.38448285 17.53817952 74.86702928 16.375 77.8125 C15 81 15 81 13.5078125 82.4375 C11.7200451 84.2901087 11.23004492 85.7322894 10.5 88.1875 C9.60583738 91.1241183 8.6194074 93.88456294 7.375 96.6875 C5.1178339 102.48995318 5.25050051 108.84978062 5 115 C0.93690569 115.89388075 -1.42671434 116.21232802 -5.375 114.75 C-8 113 -8 113 -9 110 C-9.66 109.67 -10.32 109.34 -11 109 C-15.6585583 100.43097306 -15.91508467 93.44393724 -13.65625 84.16015625 C-11.90747037 76.72849321 -10.43694331 69.25889734 -9.0625 61.75 C-8.9337146 61.05066345 -8.8049292 60.3513269 -8.67224121 59.63079834 C-6.39139773 47.14875404 -4.69049596 34.63596704 -3.29321289 22.02636719 C-2.46756584 14.61645203 -1.46658176 7.31195762 0 0 Z " fill="#45B02C" transform="translate(633,598)"/>
<path d="M0 0 C2.77736919 2.39096465 3.78460585 4.57833397 4.95776367 8.02441406 C5.31210983 9.05109192 5.66645599 10.07776978 6.03153992 11.13555908 C6.40656143 12.25098083 6.78158295 13.36640259 7.16796875 14.515625 C7.56647537 15.67761414 7.96498199 16.83960327 8.37556458 18.0368042 C9.65447176 21.77177271 10.92123673 25.51072818 12.1875 29.25 C13.02066575 31.69168574 13.85464185 34.13309513 14.68945312 36.57421875 C15.92670531 40.19294676 17.16252991 43.8121165 18.39279175 47.43322754 C20.36611663 53.23976761 22.35724344 59.03868185 24.39697266 64.82226562 C24.77122879 65.88531921 25.14548492 66.9483728 25.53108215 68.04364014 C26.23495556 70.03762558 26.9426677 72.03026153 27.65483093 74.02130127 C27.96507706 74.90082458 28.27532318 75.7803479 28.5949707 76.68652344 C28.86767288 77.45140076 29.14037506 78.21627808 29.42134094 79.0043335 C30 81 30 81 30 84 C10.53 84 -8.94 84 -29 84 C-22.24706821 63.57238135 -15.38191939 43.19499383 -8.3125 22.875 C-7.95534912 21.84711365 -7.59819824 20.81922729 -7.23022461 19.76019287 C-6.21388201 16.83689156 -5.19534804 13.91436568 -4.17578125 10.9921875 C-3.86900955 10.11046875 -3.56223785 9.22875 -3.24617004 8.3203125 C-2.96424301 7.5144873 -2.68231598 6.70866211 -2.3918457 5.87841797 C-2.14602249 5.17425751 -1.90019928 4.47009705 -1.64692688 3.74459839 C-1 2 -1 2 0 0 Z " fill="#FDFEFB" transform="translate(771,804)"/>
<path d="M0 0 C5.02375058 3.65823448 10.16460935 8.75604599 12.328125 14.6953125 C13.29106811 23.60253623 13.67202029 32.12290957 8.2421875 39.67578125 C3.19592016 45.00010822 -3.33850977 49.21814296 -10.72265625 50.03125 C-17.75115509 50.11542364 -22.81598011 49.70197743 -28.671875 45.6953125 C-29.538125 45.1590625 -30.404375 44.6228125 -31.296875 44.0703125 C-37.31266509 38.05452241 -40.06258436 32.68561307 -40.234375 24.0703125 C-39.78120352 14.47657593 -38.0284243 9.04645258 -30.8984375 2.4609375 C-21.67862571 -4.8502115 -10.31671291 -5.82395084 0 0 Z " fill="#FDFEF9" transform="translate(1407.671875,719.3046875)"/>
<path d="M0 0 C4.90830555 2.37902565 7.2350907 5.1063762 9.625 10 C10.77664365 15.54882848 10.33449921 20.89197555 8.125 26.125 C4.57098565 30.41432766 0.84996361 33.87267326 -4.88671875 34.5859375 C-10.48740687 34.81453702 -14.39299261 34.24167841 -18.9921875 30.91796875 C-23.33000011 26.81004022 -24.89706238 22.20384342 -25.25 16.3125 C-24.99497431 10.95696044 -23.30178592 7.24980182 -19.6875 3.3125 C-13.35192372 -2.13503525 -7.83732149 -3.12468373 0 0 Z " fill="#FCFEFE" transform="translate(1357.6875,657.6875)"/>
<path d="M0 0 C2.475 0.495 2.475 0.495 5 1 C4.3209678 7.38290267 2.54175001 13.12380777 0.171875 19.08203125 C-2.41333749 25.91256817 -2.70083401 32.74780366 -3 40 C0.63 38.68 4.26 37.36 8 36 C6.70873786 41.16504854 6.70873786 41.16504854 4 43 C1.2993119 43.80446028 -1.18246588 44.18783561 -4 44 C-7.44854859 41.64046676 -8.69798908 38.90603275 -10 35 C-10.5775 35.886875 -11.155 36.77375 -11.75 37.6875 C-13.68068476 40.59042244 -15.78280064 43.30768649 -18 46 C-21.68754757 45.50168276 -23.60490662 44.89932357 -26 42 C-26.33 42.66 -26.66 43.32 -27 44 C-31.48940288 45.34209518 -35.15622929 45.2960599 -39.5625 43.75 C-42.78388131 40.11562109 -42.84656689 37.78217528 -42.59765625 33.02734375 C-41.38775049 26.89873616 -38.03787756 19.92272237 -33 16 C-29.8125 16.3125 -29.8125 16.3125 -27 17 C-25.78462377 22.52443743 -25.97315757 25.21563615 -29 30 C-30.94111366 32.71460312 -32.94063125 35.37413823 -35 38 C-33.72125 38.020625 -32.4425 38.04125 -31.125 38.0625 C-30.40570312 38.07410156 -29.68640625 38.08570313 -28.9453125 38.09765625 C-26.91814596 38.12649242 -26.91814596 38.12649242 -25 37 C-24.1456893 35.13155857 -23.36520283 33.22901243 -22.625 31.3125 C-20.80031566 26.76973989 -18.93083013 22.9077735 -16 19 C-13.69 19.33 -11.38 19.66 -9 20 C-8.52820312 18.83984375 -8.52820312 18.83984375 -8.046875 17.65625 C-5.57539195 11.64131535 -2.99670274 5.77142749 0 0 Z " fill="#0F2E71" transform="translate(1284,578)"/>
<path d="M0 0 C6.40578207 -0.66726897 10.02245139 0.98490708 15 5 C18.8253902 8.39793182 22.37264574 11.66463011 22.75 17 C22.02638984 24.23610162 17.11402119 29.33528964 11.74609375 33.7734375 C7.70675137 36.61091738 4.96687733 37.22576715 0 37 C-0.12375 38.010625 -0.2475 39.02125 -0.375 40.0625 C-0.98085335 43.87937612 -1.87193912 47.31500112 -3 51 C-4.98 51.495 -4.98 51.495 -7 52 C-8.49925986 45.61071234 -7.19802383 40.98716879 -5.25 34.8125 C-4.68889537 32.94307072 -4.12899186 31.0732805 -3.5703125 29.203125 C-3.29864258 28.30787109 -3.02697266 27.41261719 -2.74707031 26.49023438 C-1.80896606 23.36322019 -0.94292169 20.22301295 -0.125 17.0625 C0.09929687 16.20785156 0.32359375 15.35320313 0.5546875 14.47265625 C1.44854074 9.50941854 0.93705436 4.91953539 0 0 Z " fill="#0B2A6F" transform="translate(1133,571)"/>
<path d="M0 0 C5.02375058 3.65823448 10.16460935 8.75604599 12.328125 14.6953125 C13.29106811 23.60253623 13.67202029 32.12290957 8.2421875 39.67578125 C3.19592016 45.00010822 -3.33850977 49.21814296 -10.72265625 50.03125 C-17.75115509 50.11542364 -22.81598011 49.70197743 -28.671875 45.6953125 C-29.538125 45.1590625 -30.404375 44.6228125 -31.296875 44.0703125 C-37.31266509 38.05452241 -40.06258436 32.68561307 -40.234375 24.0703125 C-39.78120352 14.47657593 -38.0284243 9.04645258 -30.8984375 2.4609375 C-21.67862571 -4.8502115 -10.31671291 -5.82395084 0 0 Z M-31.671875 9.6953125 C-35.45750522 15.05145185 -36.70999284 20.22045382 -35.671875 26.6953125 C-33.58883979 34.84256856 -29.89912317 39.45620573 -22.84375 43.828125 C-17.53989182 45.94585255 -10.69881789 45.51195137 -5.25390625 44.04296875 C0.76215367 41.33166902 4.8340486 36.75137786 7.703125 30.8828125 C9.06228849 23.9510787 9.24105955 17.78171203 5.6640625 11.515625 C2.16250999 6.74450375 -2.04674407 3.53672307 -7.671875 1.6953125 C-17.3505752 0.59610909 -24.66992595 2.69336345 -31.671875 9.6953125 Z " fill="#ABD70D" transform="translate(1407.671875,719.3046875)"/>
<path d="M0 0 C5.94 0 11.88 0 18 0 C18 0.99 18 1.98 18 3 C16.35 3.33 14.7 3.66 13 4 C12.67 8.95 12.34 13.9 12 19 C18.93 19 25.86 19 33 19 C32.67 14.38 32.34 9.76 32 5 C30.02 4.34 28.04 3.68 26 3 C26 2.01 26 1.02 26 0 C32.27 0 38.54 0 45 0 C45 0.99 45 1.98 45 3 C43.35 3.33 41.7 3.66 40 4 C40 15.22 40 26.44 40 38 C41.65 38.33 43.3 38.66 45 39 C45 39.66 45 40.32 45 41 C39.06 41 33.12 41 27 41 C27 40.34 27 39.68 27 39 C28.65 38.34 30.3 37.68 32 37 C32.33 31.72 32.66 26.44 33 21 C26.07 21 19.14 21 12 21 C12.33 26.28 12.66 31.56 13 37 C14.65 37.66 16.3 38.32 18 39 C18 39.66 18 40.32 18 41 C12.06 41 6.12 41 0 41 C0 40.34 0 39.68 0 39 C1.65 38.34 3.3 37.68 5 37 C5 26.44 5 15.88 5 5 C2.525 4.01 2.525 4.01 0 3 C0 2.01 0 1.02 0 0 Z " fill="#0BABE8" transform="translate(1116,650)"/>
<path d="M0 0 C8.91 0 17.82 0 27 0 C27 8.58 27 17.16 27 26 C24.03 26 21.06 26 18 26 C17.6875 23.8125 17.6875 23.8125 18 21 C20.5 18.1875 20.5 18.1875 23 16 C19.93942994 17.59478763 19.93942994 17.59478763 17 20 C16.0311941 23.13265479 16.0311941 23.13265479 16 26 C14.35 26 12.7 26 11 26 C10.6596875 24.3603125 10.6596875 24.3603125 10.3125 22.6875 C9.34252805 18.87511789 9.34252805 18.87511789 6.375 17.0625 C5.199375 16.5365625 5.199375 16.5365625 4 16 C4 16.66 4 17.32 4 18 C4.639375 18.309375 5.27875 18.61875 5.9375 18.9375 C8 20 8 20 9 21 C9.04063832 22.66617115 9.042721 24.33388095 9 26 C6.03 26 3.06 26 0 26 C0 17.42 0 8.84 0 0 Z " fill="#264389" transform="translate(1076,674)"/>
<path d="M0 0 C8.58 0 17.16 0 26 0 C26 8.58 26 17.16 26 26 C23.03 26 20.06 26 17 26 C16.6875 23.8125 16.6875 23.8125 17 21 C19.5 18.1875 19.5 18.1875 22 16 C18.93942994 17.59478763 18.93942994 17.59478763 16 20 C15.67 21.98 15.34 23.96 15 26 C10.05 26 5.1 26 0 26 C0 17.42 0 8.84 0 0 Z " fill="#203E86" transform="translate(1044,674)"/>
<path d="M0 0 C8.58 0 17.16 0 26 0 C26 8.58 26 17.16 26 26 C23.03 26 20.06 26 17 26 C17 24.02 17 22.04 17 20 C18.65 19.34 20.3 18.68 22 18 C22 17.34 22 16.68 22 16 C18.93942994 17.59478763 18.93942994 17.59478763 16 20 C15.0311941 23.13265479 15.0311941 23.13265479 15 26 C13.35 26 11.7 26 10 26 C9.5978125 24.2984375 9.5978125 24.2984375 9.1875 22.5625 C8.795625 21.386875 8.40375 20.21125 8 19 C7.01 18.67 6.02 18.34 5 18 C5.66 18.391875 6.32 18.78375 7 19.1875 C9 21 9 21 9.25 23.6875 C9.1675 24.450625 9.085 25.21375 9 26 C6.03 26 3.06 26 0 26 C0 17.42 0 8.84 0 0 Z " fill="#1F3D86" transform="translate(1044,641)"/>
<path d="M0 0 C8.25 0 16.5 0 25 0 C25 8.58 25 17.16 25 26 C22.36 26 19.72 26 17 26 C16.63374029 21.48279689 16.63374029 21.48279689 18.375 19.1875 C20 18 20 18 22 18 C22 17.34 22 16.68 22 16 C18.93942994 17.59478763 18.93942994 17.59478763 16 20 C15.0311941 23.13265479 15.0311941 23.13265479 15 26 C13.35 26 11.7 26 10 26 C9.5978125 24.2984375 9.5978125 24.2984375 9.1875 22.5625 C8.795625 21.386875 8.40375 20.21125 8 19 C7.01 18.67 6.02 18.34 5 18 C5.66 18.391875 6.32 18.78375 7 19.1875 C9 21 9 21 9.25 23.6875 C9.1675 24.450625 9.085 25.21375 9 26 C6.03 26 3.06 26 0 26 C0 17.42 0 8.84 0 0 Z " fill="#1A3983" transform="translate(1077,641)"/>
<path d="M0 0 C2.82145364 3.3842436 3.58645736 5.70294045 3.40234375 10.1953125 C1.3231981 24.68877439 -6.32428239 37.2562872 -16 48 C-17.65614657 48.38218767 -19.32457024 48.71395102 -21 49 C-22.61992266 50.15222591 -22.61992266 50.15222591 -24.1875 51.5625 C-27 54 -27 54 -29 54 C-28.44854929 49.0671601 -26.83896902 45.15993109 -24.5625 40.8125 C-24.20978027 40.12760498 -23.85706055 39.44270996 -23.49365234 38.73706055 C-22.7320657 37.26175557 -21.96697235 35.78825658 -21.19873047 34.31640625 C-19.97480879 31.95132093 -18.78435425 29.57145295 -17.59765625 27.1875 C-12.60795832 17.28540234 -7.15509597 8.47954991 0 0 Z " fill="#F9FCF8" transform="translate(828,629)"/>
<path d="M0 0 C2.81555739 1.95864862 3.06023206 3.27451921 3.8125 6.703125 C4.19584527 10.98642159 3.37072076 14.7060977 2 18.75 C1.7728833 19.44101807 1.5457666 20.13203613 1.31176758 20.84399414 C-2.35260747 31.45462178 -8.2048769 39.9821591 -16 48 C-16.66 47.67 -17.32 47.34 -18 47 C-18.62648438 47.5053125 -19.25296875 48.010625 -19.8984375 48.53125 C-21.12433594 49.50578125 -21.12433594 49.50578125 -22.375 50.5 C-23.18710937 51.1496875 -23.99921875 51.799375 -24.8359375 52.46875 C-27 54 -27 54 -29 54 C-26.67028603 45.8460011 -22.96037067 38.57080313 -19.07177734 31.07421875 C-18.05062038 29.097966 -17.049248 27.11278724 -16.05078125 25.125 C-11.47183633 16.14022937 -6.05659869 8.05477982 0 0 Z " fill="#F9FCF9" transform="translate(747,629)"/>
<path d="M0 0 C1.32 0.33 2.64 0.66 4 1 C3.27991594 5.60853797 1.68704061 9.67237409 0 14 C6.1706096 7.14469916 6.1706096 7.14469916 12 0 C16.75 0.75 16.75 0.75 19 3 C18.73749425 10.48141385 16.73868382 17.65401404 14.984375 24.8984375 C13.21201738 32.22529702 11.83251319 39.50738132 11 47 C12.98 46.505 12.98 46.505 15 46 C14.67 47.32 14.34 48.64 14 50 C11.6875 50.3125 11.6875 50.3125 9 50 C5.9810076 46.9810076 5.82057394 44.10331635 5.80078125 40.03125 C5.86727137 33.97364999 6.81847632 28.24007658 8 22.3125 C8.19078125 21.31283203 8.3815625 20.31316406 8.578125 19.28320312 C9.04312404 16.85358312 9.51715096 14.4261238 10 12 C8.89591797 13.31677734 8.89591797 13.31677734 7.76953125 14.66015625 C6.78472555 15.79502758 5.79900013 16.92910126 4.8125 18.0625 C4.32974609 18.64322266 3.84699219 19.22394531 3.34960938 19.82226562 C1.89453125 21.47265625 1.89453125 21.47265625 -1 24 C-3.61593628 23.93797641 -5.11668771 23.88331229 -7 22 C-8.05571902 14.08210734 -4.32461767 6.48692651 0 0 Z " fill="#0E2C70" transform="translate(1333,595)"/>
<path d="M0 0 C1.3921875 0.3403125 1.3921875 0.3403125 2.8125 0.6875 C4.02787623 6.21193743 3.83934243 8.90313615 0.8125 13.6875 C-1.13104067 16.40549723 -3.13816598 19.04613615 -5.1875 21.6875 C-1.5575 21.6875 2.0725 21.6875 5.8125 21.6875 C6.8025 14.4275 7.7925 7.1675 8.8125 -0.3125 C12.8125 1.6875 12.8125 1.6875 13.5625 3.8125 C13.68625 4.740625 13.68625 4.740625 13.8125 5.6875 C14.3384375 4.9140625 14.3384375 4.9140625 14.875 4.125 C16.8125 2.6875 16.8125 2.6875 20.375 2.9375 C23.8125 3.6875 23.8125 3.6875 25.8125 4.6875 C25.8125 6.0075 25.8125 7.3275 25.8125 8.6875 C25.214375 8.501875 24.61625 8.31625 24 8.125 C21.64841238 7.46656313 21.64841238 7.46656313 18.8125 8.6875 C17.71359569 10.48253151 17.71359569 10.48253151 16.8125 12.6875 C16.39871094 13.48027344 15.98492188 14.27304687 15.55859375 15.08984375 C14.91083984 16.34474609 14.91083984 16.34474609 14.25 17.625 C13.81558594 18.45902344 13.38117188 19.29304687 12.93359375 20.15234375 C11.81674297 22.67790526 11.24538595 24.96858713 10.8125 27.6875 C7.94525314 27.11405063 6.9510485 26.8260485 4.8125 24.6875 C4.1525 25.6775 3.4925 26.6675 2.8125 27.6875 C-1.6297134 29.17119928 -5.37018619 28.97427677 -9.75 27.4375 C-12.97138131 23.80312109 -13.03406689 21.46967528 -12.78515625 16.71484375 C-11.55894439 10.5036399 -7.42489605 -0.72793098 0 0 Z " fill="#163375" transform="translate(1218.1875,594.3125)"/>
<path d="M0 0 C5.28 0 10.56 0 16 0 C16 0.66 16 1.32 16 2 C14.68 2.33 13.36 2.66 12 3 C11.67 6.96 11.34 10.92 11 15 C16.28 15 21.56 15 27 15 C26.67 11.04 26.34 7.08 26 3 C24.68 2.67 23.36 2.34 22 2 C22 1.34 22 0.68 22 0 C27.28 0 32.56 0 38 0 C38 0.66 38 1.32 38 2 C36.68 2.33 35.36 2.66 34 3 C34 12.24 34 21.48 34 31 C35.32 31.66 36.64 32.32 38 33 C38 33.33 38 33.66 38 34 C33.05 34 28.1 34 23 34 C23.99 33.34 24.98 32.68 26 32 C26.58687784 28.65386488 26.58687784 28.65386488 26.6875 24.875 C26.790625 22.60625 26.89375 20.3375 27 18 C21.72 18 16.44 18 11 18 C11 22.62 11 27.24 11 32 C12.32 32 13.64 32 15 32 C15 32.66 15 33.32 15 34 C10.05 34 5.1 34 0 34 C0 33.34 0 32.68 0 32 C1.65 32 3.3 32 5 32 C5 22.43 5 12.86 5 3 C3.35 2.67 1.7 2.34 0 2 C0 1.34 0 0.68 0 0 Z " fill="#30B8EB" transform="translate(1223,657)"/>
<path d="M0 0 C1.32 0.33 2.64 0.66 4 1 C5.17482324 4.47454806 5.06339535 4.8675142 3.34765625 8.453125 C2.59841315 9.72617522 1.83617987 10.99165126 1.0625 12.25 C0.67642578 12.8996875 0.29035156 13.549375 -0.10742188 14.21875 C-1.06058418 15.81912129 -2.02885924 17.4104742 -3 19 C0.23726107 15.80568766 3.22038089 12.60320996 6 9 C8.8125 9.125 8.8125 9.125 12 10 C13.875 13.0625 13.875 13.0625 15 16 C17.68092691 13.31907309 17.38670257 11.60832637 17.625 7.875 C17.69976563 6.77929688 17.77453125 5.68359375 17.8515625 4.5546875 C17.90054687 3.71164062 17.94953125 2.86859375 18 2 C20.4375 2.8125 20.4375 2.8125 23 4 C25.34039291 11.02117874 23.88120801 17.39398703 21 24 C19.3125 26.5625 19.3125 26.5625 18 28 C15.64453125 27.84765625 15.64453125 27.84765625 13 27 C11.63671875 24.49609375 11.63671875 24.49609375 10.6875 21.4375 C10.19830078 19.91962891 10.19830078 19.91962891 9.69921875 18.37109375 C9.46847656 17.58863281 9.23773437 16.80617188 9 16 C8.34773438 16.78246094 7.69546875 17.56492187 7.0234375 18.37109375 C6.14139204 19.39389115 5.25853635 20.41599021 4.375 21.4375 C3.73498047 22.2119043 3.73498047 22.2119043 3.08203125 23.00195312 C0.68419532 25.73978072 -0.77009126 26.94158057 -4.3359375 27.84765625 C-5.21507812 27.89792969 -6.09421875 27.94820312 -7 28 C-9.46075425 25.13775427 -10.48336002 23.42358249 -10.25 19.625 C-9.31169734 12.07335934 -4.30702615 6.03853767 0 0 Z " fill="#0C2B6F" transform="translate(1181,594)"/>
<path d="M0 0 C3.04221065 -0.08132642 6.0822238 -0.14065374 9.125 -0.1875 C9.9809375 -0.21263672 10.836875 -0.23777344 11.71875 -0.26367188 C16.93341197 -0.32384105 20.4811298 0.09300095 25 3 C27 5 27 5 27.375 8.3125 C26.93803996 12.60927372 26.1069699 14.06097442 23 17 C19.02793243 19.25441673 15.50322732 19.17659715 11 19 C11 23.29 11 27.58 11 32 C12.65 32 14.3 32 16 32 C16 32.66 16 33.32 16 34 C10.72 34 5.44 34 0 34 C0 33.34 0 32.68 0 32 C1.65 32 3.3 32 5 32 C4.67 22.43 4.34 12.86 4 3 C2.68 2.67 1.36 2.34 0 2 C0 1.34 0 0.68 0 0 Z " fill="#7AD3F6" transform="translate(1369,657)"/>
<path d="M0 0 C0.99 -0.33 1.98 -0.66 3 -1 C3 3.62 3 8.24 3 13 C2.34 13 1.68 13 1 13 C0.75765625 12.45730469 0.5153125 11.91460938 0.265625 11.35546875 C-2.24124637 5.68281126 -2.24124637 5.68281126 -7 2 C-10.19656806 1.6085835 -12.12742385 1.49334288 -14.9375 3.125 C-16.23378483 5.06693979 -16.23378483 5.06693979 -16.0625 7.9375 C-14.00847018 13.85793889 -8.06153239 15.46730951 -2.75 18.0625 C-1.19539063 18.79146484 -1.19539063 18.79146484 0.390625 19.53515625 C3 21 3 21 5 24 C5.67824191 27.74817897 5.84999853 31.45038729 3.984375 34.8515625 C1.44730288 37.95412659 -1.16230385 40.7849168 -5.26953125 41.265625 C-10.2418889 41.23507288 -14.3393794 40.96236657 -19 39 C-19.33 39.66 -19.66 40.32 -20 41 C-20.99 41 -21.98 41 -23 41 C-23 36.05 -23 31.1 -23 26 C-22.34 26 -21.68 26 -21 26 C-20.51080078 26.93972656 -20.51080078 26.93972656 -20.01171875 27.8984375 C-19.57472656 28.71570313 -19.13773438 29.53296875 -18.6875 30.375 C-18.25824219 31.18710937 -17.82898437 31.99921875 -17.38671875 32.8359375 C-16.03221276 35.26834043 -16.03221276 35.26834043 -13 37 C-10.48415109 37.24150773 -10.48415109 37.24150773 -7.8125 37.125 C-6.91144531 37.10695313 -6.01039062 37.08890625 -5.08203125 37.0703125 C-4.39496094 37.04710937 -3.70789062 37.02390625 -3 37 C-1.47508002 33.95016004 -1.76437452 31.3576631 -2 28 C-4.22350249 25.0402384 -7.01791547 23.96511751 -10.375 22.5625 C-14.39919456 20.78993811 -17.84923556 19.15076444 -21 16 C-22.21762731 12.34711807 -22.39075851 9.84245864 -22 6 C-16.78026021 -2.74501181 -9.0228818 -1.91394462 0 0 Z " fill="#75D1F6" transform="translate(1290,651)"/>
<path d="M0 0 C1.65 0.33 3.3 0.66 5 1 C5.57178311 8.0349743 3.47306438 14.2374609 1.5 20.9375 C1.16613281 22.09830078 0.83226562 23.25910156 0.48828125 24.45507812 C-0.3329359 27.3058748 -1.16256593 30.15393322 -2 33 C-1.05898437 32.97679687 -0.11796875 32.95359375 0.8515625 32.9296875 C4 33 4 33 6.375 34.125 C8 36 8 36 8.5625 38.5625 C7.75150116 43.51860403 5.69764825 47.7749509 3 52 C0 54 0 54 -2.6875 53.625 C-3.450625 53.41875 -4.21375 53.2125 -5 53 C-5.495 50.525 -5.495 50.525 -6 48 C-5.01 48 -4.02 48 -3 48 C-1.68 44.7 -0.36 41.4 1 38 C-1.97 42.455 -1.97 42.455 -5 47 C-6.65 46.67 -8.3 46.34 -10 46 C-11.49004206 39.60158408 -10.22541771 34.84262056 -8.375 28.625 C-8.10155762 27.66706543 -7.82811523 26.70913086 -7.54638672 25.72216797 C-6.71151859 22.81052306 -5.85757967 19.90502627 -5 17 C-4.49415461 15.26060181 -3.98891077 13.52102852 -3.484375 11.78125 C-2.33947326 7.84911026 -1.1758561 3.92298895 0 0 Z " fill="#0D2C70" transform="translate(1316,569)"/>
<path d="M0 0 C3.5578125 -0.0928125 3.5578125 -0.0928125 7.1875 -0.1875 C8.29387817 -0.22846802 8.29387817 -0.22846802 9.42260742 -0.27026367 C13.827366 -0.32558339 16.5179177 0.29171377 20 3 C21.59869331 6.19738662 21.51085495 9.530167 21 13 C19 16 19 16 17 18 C17.66 18.78375 18.32 19.5675 19 20.375 C21 23 21 23 21 25 C18.75 25.375 18.75 25.375 16 25 C15.38125 24.030625 14.7625 23.06125 14.125 22.0625 C12.23913311 18.61388207 12.23913311 18.61388207 8.25 18.125 C7.1775 18.08375 6.105 18.0425 5 18 C5 20.64 5 23.28 5 26 C3.35 26 1.7 26 0 26 C0 17.42 0 8.84 0 0 Z " fill="#ABD70D" transform="translate(1384,729)"/>
<path d="M0 0 C4.90830555 2.37902565 7.2350907 5.1063762 9.625 10 C10.77664365 15.54882848 10.33449921 20.89197555 8.125 26.125 C4.57098565 30.41432766 0.84996361 33.87267326 -4.88671875 34.5859375 C-10.48740687 34.81453702 -14.39299261 34.24167841 -18.9921875 30.91796875 C-23.33000011 26.81004022 -24.89706238 22.20384342 -25.25 16.3125 C-24.99497431 10.95696044 -23.30178592 7.24980182 -19.6875 3.3125 C-13.35192372 -2.13503525 -7.83732149 -3.12468373 0 0 Z M-16.6875 6.3125 C-19.62565574 12.46863583 -19.49395667 18.72334963 -17.5 25.125 C-15.52626088 28.59605846 -14.1576612 30.3408175 -10.6875 32.3125 C-6.49772845 32.91103879 -4.48714475 32.81005673 -0.875 30.5625 C3.39128956 26.17431645 3.6522177 22.34656269 3.625 16.375 C3.64916992 15.32022461 3.64916992 15.32022461 3.67382812 14.24414062 C3.67804883 9.7406435 3.10911008 6.8688449 0.3125 3.3125 C-5.94862392 -0.86158262 -12.26999595 0.15476708 -16.6875 6.3125 Z " fill="#77D2F6" transform="translate(1357.6875,657.6875)"/>
<path d="M0 0 C1.43472656 -0.02126953 1.43472656 -0.02126953 2.8984375 -0.04296875 C5.65510017 0.19004428 7.27447395 0.77829836 9.625 2.1875 C9.625 1.5275 9.625 0.8675 9.625 0.1875 C10.615 0.1875 11.605 0.1875 12.625 0.1875 C12.625 4.1475 12.625 8.1075 12.625 12.1875 C11.965 12.1875 11.305 12.1875 10.625 12.1875 C9.40625 10.47265625 9.40625 10.47265625 8.125 8.25 C6.44045121 5.13317974 6.44045121 5.13317974 3.625 3.1875 C-2.33797605 2.51971658 -2.33797605 2.51971658 -7.3125 5.5 C-11.40002128 10.82616409 -10.85300268 16.73446379 -10.375 23.1875 C-9.19792157 26.54217353 -7.99834619 28.44427954 -5.75 31.125 C-2.00012846 32.80257411 1.68114918 32.05146732 5.625 31.1875 C6.83061184 30.20482141 6.83061184 30.20482141 6.72265625 28.33984375 C6.71105469 27.60894531 6.69945312 26.87804687 6.6875 26.125 C6.666875 24.825625 6.64625 23.52625 6.625 22.1875 C4.975 21.8575 3.325 21.5275 1.625 21.1875 C1.625 20.5275 1.625 19.8675 1.625 19.1875 C6.905 19.1875 12.185 19.1875 17.625 19.1875 C17.625 19.8475 17.625 20.5075 17.625 21.1875 C16.305 21.5175 14.985 21.8475 13.625 22.1875 C13.295 26.4775 12.965 30.7675 12.625 35.1875 C11.01625 34.9090625 11.01625 34.9090625 9.375 34.625 C5.98182663 34.22912977 4.73338116 34.35383456 1.625 35.1875 C-2.96392167 35.69645313 -6.43989062 35.61094576 -10.6875 33.6875 C-15.7263056 29.00023898 -17.59429584 24.43975199 -17.875 17.5625 C-17.63976642 11.88552956 -16.02522533 8.66870585 -11.84375 4.75390625 C-7.68045408 1.15183895 -5.42901301 0.03638749 0 0 Z " fill="#11ADE8" transform="translate(1203.375,656.8125)"/>
<path d="M0 0 C8.91 0 17.82 0 27 0 C27 2.97 27 5.94 27 9 C26.34 9 25.68 9 25 9 C24.525625 8.030625 24.05125 7.06125 23.5625 6.0625 C21.35162179 2.79381845 21.35162179 2.79381845 18.29296875 2.37890625 C15.53534499 2.14880927 12.76642276 2.06586721 10 2 C10 6.62 10 11.24 10 16 C13.40080577 15.89592083 13.40080577 15.89592083 17 15 C18.84434349 12.53884453 18.84434349 12.53884453 20 10 C20.66 10 21.32 10 22 10 C22 14.62 22 19.24 22 24 C21.34 24 20.68 24 20 24 C19.835 23.21625 19.67 22.4325 19.5 21.625 C18.29603101 18.8906529 18.29603101 18.8906529 16.0859375 18.22265625 C14.07483301 17.73586948 12.037362 17.36146745 10 17 C10.33 21.62 10.66 26.24 11 31 C17.03238926 31.41731305 17.03238926 31.41731305 23 31 C25.71036916 28.19003917 25.71036916 28.19003917 27 25 C27.66 25 28.32 25 29 25 C29 27.97 29 30.94 29 34 C19.43 34 9.86 34 0 34 C0 33.34 0 32.68 0 32 C1.65 32 3.3 32 5 32 C5 22.43 5 12.86 5 3 C3.35 2.67 1.7 2.34 0 2 C0 1.34 0 0.68 0 0 Z " fill="#75D1F6" transform="translate(1400,657)"/>
<path d="M0 0 C3.76380436 1.31295501 5.8464143 3.49481943 7.6875 6.9375 C8.66353252 12.35004396 7.93060472 15.06382571 5 19.6875 C2.56756274 22.98784915 0.30693272 25.89576872 -3.3125 27.9375 C-6.14512075 27.87005665 -7.70219703 27.29526381 -10.125 25.875 C-12.07875406 22.687296 -11.90381764 19.5044806 -11.3125 15.9375 C-10.22445008 13.11265679 -8.82003424 10.5564281 -7.3125 7.9375 C-6.08578266 5.59151501 -5.15434885 3.46304655 -4.3125 0.9375 C-2.3125 -0.0625 -2.3125 -0.0625 0 0 Z " fill="#0A286E" transform="translate(1163.3125,595.0625)"/>
<path d="M0 0 C1.29550781 -0.02126953 1.29550781 -0.02126953 2.6171875 -0.04296875 C5.2491288 0.19890748 6.86480544 0.85766459 9.125 2.1875 C9.125 1.5275 9.125 0.8675 9.125 0.1875 C10.115 0.1875 11.105 0.1875 12.125 0.1875 C12.125 4.4775 12.125 8.7675 12.125 13.1875 C11.465 13.1875 10.805 13.1875 10.125 13.1875 C9.87105469 12.63320313 9.61710937 12.07890625 9.35546875 11.5078125 C9.01128906 10.78335938 8.66710938 10.05890625 8.3125 9.3125 C7.97605469 8.59320312 7.63960937 7.87390625 7.29296875 7.1328125 C6.13032903 4.88207194 6.13032903 4.88207194 3.125 3.1875 C-0.94810438 2.64478649 -0.94810438 2.64478649 -4.875 3.1875 C-8.86232441 7.78825894 -10.18315801 11.93479455 -10.09375 17.9921875 C-9.63409765 22.60512718 -8.18262702 26.63771983 -5.1875 30.1875 C-1.74984567 31.67405323 1.48725012 31.85875147 5.125 31.1875 C7.9350346 29.39386089 9.63440468 28.16869065 11.125 25.1875 C11.785 25.1875 12.445 25.1875 13.125 25.1875 C12.02117316 29.05089392 10.30238864 31.74617983 7.09765625 34.234375 C2.95770467 36.23466844 -1.42925105 35.89643463 -5.875 35.1875 C-11.24727821 32.64787757 -14.41610251 28.83474373 -16.625 23.3125 C-17.33954665 17.23885347 -17.49188612 12.99894369 -14.15625 7.79296875 C-10.27067762 2.92415702 -6.27718079 0.04656662 0 0 Z " fill="#78D2F6" transform="translate(1315.875,656.8125)"/>
<path d="M0 0 C5.28 0 10.56 0 16 0 C16 0.66 16 1.32 16 2 C14.68 2.33 13.36 2.66 12 3 C12 12.24 12 21.48 12 31 C13.32 31.66 14.64 32.32 16 33 C16 33.33 16 33.66 16 34 C11.05 34 6.1 34 1 34 C2.32 33.01 3.64 32.02 5 31 C5.70272776 27.58372468 5.70272776 27.58372468 5.75 23.8125 C5.8325 21.564375 5.915 19.31625 6 17 C0.39 17 -5.22 17 -11 17 C-11 16.67 -11 16.34 -11 16 C-5.39 16 0.22 16 6 16 C5.67 12.04 5.34 8.08 5 4 C2.525 3.01 2.525 3.01 0 2 C0 1.34 0 0.68 0 0 Z " fill="#0DACE8" transform="translate(1245,657)"/>
<path d="M0 0 C1.953125 0.8671875 1.953125 0.8671875 4 2 C4.75 4.125 4.75 4.125 5 6 C5.350625 5.484375 5.70125 4.96875 6.0625 4.4375 C8 3 8 3 11.5625 3.25 C15 4 15 4 17 5 C17 6.32 17 7.64 17 9 C16.401875 8.814375 15.80375 8.62875 15.1875 8.4375 C12.83591238 7.77906313 12.83591238 7.77906313 10 9 C8.90109569 10.79503151 8.90109569 10.79503151 8 13 C7.58621094 13.79277344 7.17242188 14.58554687 6.74609375 15.40234375 C6.31425781 16.23894531 5.88242188 17.07554687 5.4375 17.9375 C5.00308594 18.77152344 4.56867188 19.60554687 4.12109375 20.46484375 C3.00424297 22.99040526 2.43288595 25.28108713 2 28 C-1.875 27.125 -1.875 27.125 -3 26 C-3.30733651 20.21439018 -2.46141983 14.75739675 -1.5 9.0625 C-1.35691406 8.18787109 -1.21382812 7.31324219 -1.06640625 6.41210938 C-0.71588387 4.27392283 -0.35863074 2.13684151 0 0 Z " fill="#0B296F" transform="translate(1227,594)"/>
<path d="M0 0 C5.28 0 10.56 0 16 0 C16 0.66 16 1.32 16 2 C14.02 2.33 12.04 2.66 10 3 C10.33 12.24 10.66 21.48 11 31 C12.32 31.33 13.64 31.66 15 32 C15 32.66 15 33.32 15 34 C10.05 34 5.1 34 0 34 C0 33.34 0 32.68 0 32 C1.65 32 3.3 32 5 32 C5 22.43 5 12.86 5 3 C3.35 2.67 1.7 2.34 0 2 C0 1.34 0 0.68 0 0 Z " fill="#0FADE8" transform="translate(1166,657)"/>
<path d="M0 0 C4.38104998 0.50069143 6.95617461 1.78224173 10 5 C10.8514563 8.32842007 10.40417695 10.20681997 8.85546875 13.24609375 C5.85626279 18.06539831 3.04265134 21.36406862 -2 24 C-2.66 24 -3.32 24 -4 24 C-3.46508728 20.52306735 -2.80456733 17.10991326 -2 13.6875 C-0.96381831 9.1406729 -0.44194504 4.64042297 0 0 Z " fill="#F6F7F9" transform="translate(1140,577)"/>
<path d="M0 0 C1.23828125 1.57421875 1.23828125 1.57421875 2 4 C0.84754054 6.48721143 -0.31678566 8.54399992 -1.8125 10.8125 C-2.65819505 12.15063553 -3.50322783 13.4891898 -4.34765625 14.828125 C-5.00725342 15.85776367 -5.00725342 15.85776367 -5.68017578 16.90820312 C-6.97108978 18.95418002 -8.21071172 21.02213659 -9.43359375 23.109375 C-10.01693481 24.10360474 -10.01693481 24.10360474 -10.61206055 25.11791992 C-11.34893461 26.37713509 -12.08361725 27.63763626 -12.81567383 28.8996582 C-15.22849828 32.96957099 -17.80645965 36.52623177 -21 40 C-21.66 40 -22.32 40 -23 40 C-22.42075621 36.3561104 -21.44691908 33.61370754 -19.62890625 30.41015625 C-19.14131836 29.5493042 -18.65373047 28.68845215 -18.15136719 27.80151367 C-17.62704102 26.89763916 -17.10271484 25.99376465 -16.5625 25.0625 C-16.02915039 24.13477783 -15.49580078 23.20705566 -14.94628906 22.2512207 C-10.41601729 14.48321612 -5.43645553 7.1563961 0 0 Z " fill="#F1F9F0" transform="translate(397,633)"/>
<path d="M0 0 C2.5 0.25 2.5 0.25 4.5 2.25 C4.6875 5.3125 4.6875 5.3125 4.5 8.25 C4.17 8.58 3.84 8.91 3.5 9.25 C3.26807135 10.76469448 3.08784762 12.28754562 2.9375 13.8125 C2.85371094 14.63878906 2.76992187 15.46507812 2.68359375 16.31640625 C2.62300781 16.95449219 2.56242187 17.59257813 2.5 18.25 C0.19 18.25 -2.12 18.25 -4.5 18.25 C-4.768125 17.30125 -5.03625 16.3525 -5.3125 15.375 C-6.24986588 11.99732727 -6.24986588 11.99732727 -9.5 10.25 C-9.5 9.59 -9.5 8.93 -9.5 8.25 C-7.025 9.24 -7.025 9.24 -4.5 10.25 C-4.561875 8.331875 -4.561875 8.331875 -4.625 6.375 C-4.6953125 4.1953125 -4.6953125 4.1953125 -4.5 2.25 C-2.5 0.25 -2.5 0.25 0 0 Z " fill="#5DB4E1" transform="translate(1056.5,681.75)"/>
<path d="M0 0 C6 0 6 0 8.375 1.5625 C10.63913895 4.95870843 10.64269755 7.00099302 10 11 C7.8125 13.4375 7.8125 13.4375 5 15 C3.35 15 1.7 15 0 15 C0 10.05 0 5.1 0 0 Z " fill="#F9FDFE" transform="translate(1380,659)"/>
<path d="M0 0 C1.423125 -0.061875 2.84625 -0.12375 4.3125 -0.1875 C5.51326172 -0.23970703 5.51326172 -0.23970703 6.73828125 -0.29296875 C9 0 9 0 10.8046875 1.31640625 C12 3 12 3 11.8125 6.125 C11.544375 7.07375 11.27625 8.0225 11 9 C7.57067929 10.71466036 3.78283935 10.05404056 0 10 C0 6.7 0 3.4 0 0 Z " fill="#FCFDF8" transform="translate(1389,733)"/>
<path d="M0 0 C0.33 0 0.66 0 1 0 C1 8.91 1 17.82 1 27 C-7.58 27 -16.16 27 -25 27 C-25 26.67 -25 26.34 -25 26 C-22.03 26 -19.06 26 -16 26 C-16.41421969 21.16743695 -18.46413986 19.17320782 -22 16 C-19.08482708 17.07401108 -17.22189824 17.77810176 -15 20 C-14.875 23.125 -14.875 23.125 -15 26 C-13.35 26 -11.7 26 -10 26 C-10.103125 25.0925 -10.20625 24.185 -10.3125 23.25 C-10 20 -10 20 -7.625 17.625 C-5 16 -5 16 -3 16 C-3 16.66 -3 17.32 -3 18 C-3.639375 18.433125 -4.27875 18.86625 -4.9375 19.3125 C-7.49927596 21.40849852 -7.65221564 22.78299472 -8 26 C-5.36 26 -2.72 26 0 26 C0 17.42 0 8.84 0 0 Z " fill="#B2BCD5" transform="translate(1102,641)"/>
<path d="M0 0 C2.5625 0.3125 2.5625 0.3125 4.4375 1.5 C5.5625 3.3125 5.5625 3.3125 5.375 5.875 C4.5625 8.3125 4.5625 8.3125 2.5625 10.3125 C0.0625 10.5625 0.0625 10.5625 -2.4375 10.3125 C-4.4375 8.3125 -4.4375 8.3125 -4.6875 5.3125 C-4.37675292 1.58353509 -3.7821044 0.48488518 0 0 Z " fill="#5CB2DF" transform="translate(1089.4375,681.6875)"/>
<path d="M0 0 C0.99 0.103125 1.98 0.20625 3 0.3125 C5 3.3125 5 3.3125 4.8125 5.875 C4 8.3125 4 8.3125 1 10.3125 C-1.6875 9.9375 -1.6875 9.9375 -4 9.3125 C-4.625 5.9375 -4.625 5.9375 -5 2.3125 C-3 0.3125 -3 0.3125 0 0 Z " fill="#60B9E5" transform="translate(1090,648.6875)"/>
<path d="M0 0 C2.9375 0.1875 2.9375 0.1875 3.9375 1.1875 C4.1875 4.625 4.1875 4.625 3.9375 8.1875 C0.9375 10.1875 0.9375 10.1875 -1.75 9.8125 C-2.513125 9.60625 -3.27625 9.4 -4.0625 9.1875 C-4.6875 5.8125 -4.6875 5.8125 -5.0625 2.1875 C-3.0625 0.1875 -3.0625 0.1875 0 0 Z " fill="#64BFEA" transform="translate(1057.0625,648.8125)"/>
<path d="M0 0 C0.78375 0.350625 1.5675 0.70125 2.375 1.0625 C3.674375 1.5265625 3.674375 1.5265625 5 2 C5.66 1.67 6.32 1.34 7 1 C8.67654729 1.27942455 10.34608154 1.60828247 12 2 C12 4.64 12 7.28 12 10 C9.69 10 7.38 10 5 10 C4.731875 9.05125 4.46375 8.1025 4.1875 7.125 C3.25013412 3.74732727 3.25013412 3.74732727 0 2 C0 1.34 0 0.68 0 0 Z " fill="#183782" transform="translate(1047,690)"/>
<path d="M0 0 C1.2375 0.1546875 1.2375 0.1546875 2.5 0.3125 C4.5 3.3125 4.5 3.3125 4.25 5.375 C3.5 7.3125 3.5 7.3125 1.5 9.3125 C-1.125 8.9375 -1.125 8.9375 -3.5 8.3125 C-4.125 5.4375 -4.125 5.4375 -4.5 2.3125 C-2.5 0.3125 -2.5 0.3125 0 0 Z " fill="#DBF3FC" transform="translate(1437.5,684.6875)"/>
<path d="M0 0 C0.66 0 1.32 0 2 0 C1.49197232 4.36903809 0.65725947 7.45698737 -2 11 C-4.1875 12.3125 -4.1875 12.3125 -6 13 C-4.58707905 8.1725201 -2.57025846 4.2837641 0 0 Z " fill="#DBDFE9" transform="translate(1164,602)"/>
<path d="M0 0 C2.125 0.375 2.125 0.375 4 1 C4.625 2.875 4.625 2.875 5 5 C4.34 5.66 3.68 6.32 3 7 C0.875 6.625 0.875 6.625 -1 6 C-1.625 4.125 -1.625 4.125 -2 2 C-1.34 1.34 -0.68 0.68 0 0 Z " fill="#1E428B" transform="translate(1088,650)"/>
<path d="M0 0 C2.125 0.375 2.125 0.375 4 1 C4.625 2.875 4.625 2.875 5 5 C4.34 5.66 3.68 6.32 3 7 C0.875 6.625 0.875 6.625 -1 6 C-1.625 4.125 -1.625 4.125 -2 2 C-1.34 1.34 -0.68 0.68 0 0 Z " fill="#1D428A" transform="translate(1055,650)"/>
<path d="M0 0 C1.65 0 3.3 0 5 0 C5.33 1.65 5.66 3.3 6 5 C4.35 5.33 2.7 5.66 1 6 C-0.0625 4.125 -0.0625 4.125 -1 2 C-0.67 1.34 -0.34 0.68 0 0 Z " fill="#1C3F88" transform="translate(1087,684)"/>
<path d="M0 0 C1.65 0 3.3 0 5 0 C5.33 1.65 5.66 3.3 6 5 C4.35 5.33 2.7 5.66 1 6 C-0.0625 4.125 -0.0625 4.125 -1 2 C-0.67 1.34 -0.34 0.68 0 0 Z " fill="#1C3F88" transform="translate(1054,684)"/>
<path d="M0 0 C0.33 0.66 0.66 1.32 1 2 C0.00390625 4.3828125 0.00390625 4.3828125 -1.4375 7.125 C-1.91058594 8.03507813 -2.38367187 8.94515625 -2.87109375 9.8828125 C-3.24363281 10.58148437 -3.61617187 11.28015625 -4 12 C-4.99 11.34 -5.98 10.68 -7 10 C-6.02223933 8.51990357 -5.0427506 7.04094856 -4.0625 5.5625 C-3.51722656 4.73878906 -2.97195313 3.91507813 -2.41015625 3.06640625 C-1 1 -1 1 0 0 Z " fill="#E7EAF1" transform="translate(1317,606)"/>
<path d="M0 0 C1.2065625 0.0309375 1.2065625 0.0309375 2.4375 0.0625 C2.1075 2.0425 1.7775 4.0225 1.4375 6.0625 C-0.5425 6.0625 -2.5225 6.0625 -4.5625 6.0625 C-3.48963568 0.08511307 -3.48963568 0.08511307 0 0 Z " fill="#BDE9FA" transform="translate(1437.5625,684.9375)"/>
<path d="M0 0 C0.66 1.32 1.32 2.64 2 4 C0.71937515 5.7074998 -0.61767557 7.37373596 -2 9 C-2.66 9 -3.32 9 -4 9 C-4.99 9.495 -4.99 9.495 -6 10 C-4.34832443 6.4213696 -2.21713508 3.25179812 0 0 Z " fill="#DFF1DB" transform="translate(397,633)"/>
<path d="M0 0 C-1 3 -1 3 -4 5 C-4.72965366 7.56282742 -4.72965366 7.56282742 -5 10 C-5.66 10 -6.32 10 -7 10 C-7.3125 7.25 -7.3125 7.25 -7 4 C-3 0 -3 0 0 0 Z " fill="#5EB5E2" transform="translate(1099,690)"/>
<path d="M0 0 C2.91517292 1.07401108 4.77810176 1.77810176 7 4 C7.125 7.125 7.125 7.125 7 10 C6.34 10 5.68 10 5 10 C4.731875 9.05125 4.46375 8.1025 4.1875 7.125 C3.25013412 3.74732727 3.25013412 3.74732727 0 2 C0 1.34 0 0.68 0 0 Z " fill="#5BAFDE" transform="translate(1080,690)"/>
<path d="M0 0 C2.91517292 1.07401108 4.77810176 1.77810176 7 4 C7.125 7.125 7.125 7.125 7 10 C6.34 10 5.68 10 5 10 C4.731875 9.05125 4.46375 8.1025 4.1875 7.125 C3.25013412 3.74732727 3.25013412 3.74732727 0 2 C0 1.34 0 0.68 0 0 Z " fill="#59ACDB" transform="translate(1047,690)"/>
<path d="M0 0 C-1 3 -1 3 -4 5 C-4.72965366 7.56282742 -4.72965366 7.56282742 -5 10 C-5.66 10 -6.32 10 -7 10 C-7.3125 7.25 -7.3125 7.25 -7 4 C-3 0 -3 0 0 0 Z " fill="#60B9E5" transform="translate(1066,690)"/>
<path d="M0 0 C0 0.66 0 1.32 0 2 C-0.9590625 2.6496875 -0.9590625 2.6496875 -1.9375 3.3125 C-4.49927596 5.40849852 -4.65221564 6.78299472 -5 10 C-5.66 10 -6.32 10 -7 10 C-7.3125 7.25 -7.3125 7.25 -7 4 C-3 0 -3 0 0 0 Z " fill="#61B7E3" transform="translate(1099,657)"/>
<path d="M0 0 C5.94 0 11.88 0 18 0 C18 0.33 18 0.66 18 1 C13.05 1 8.1 1 3 1 C3 1.66 3 2.32 3 3 C2.01 3 1.02 3 0 3 C0 2.01 0 1.02 0 0 Z " fill="#4CC1EE" transform="translate(1116,650)"/>
<path d="M0 0 C0.75 1.625 0.75 1.625 1 4 C-0.9375 7.25 -0.9375 7.25 -3 10 C-3.75 8.375 -3.75 8.375 -4 6 C-2.0625 2.75 -2.0625 2.75 0 0 Z " fill="#D2D8E5" transform="translate(1271,603)"/>
<path d="M0 0 C0.66 0 1.32 0 2 0 C0.73058503 3.91402949 -0.51167694 5.79072873 -4 8 C-4.66 7.34 -5.32 6.68 -6 6 C-5.195625 5.38125 -4.39125 4.7625 -3.5625 4.125 C-0.96125481 2.25835959 -0.96125481 2.25835959 0 0 Z " fill="#86D7F7" transform="translate(1327,682)"/>
<path d="M0 0 C1.3921875 0.2784375 1.3921875 0.2784375 2.8125 0.5625 C6.01343771 1.24123881 6.01343771 1.24123881 9 0 C8.67 0.99 8.34 1.98 8 3 C5.6875 3.6875 5.6875 3.6875 3 4 C1.1875 2.625 1.1875 2.625 0 1 C0 0.67 0 0.34 0 0 Z " fill="#59ADDB" transform="translate(1085,655)"/>
<path d="M0 0 C2.91517292 1.07401108 4.77810176 1.77810176 7 4 C7.125 7.125 7.125 7.125 7 10 C6.67 10 6.34 10 6 10 C5.938125 9.278125 5.87625 8.55625 5.8125 7.8125 C4.75543353 4.15342375 2.79449929 2.50788398 0 0 Z " fill="#64BEE8" transform="translate(1080,657)"/>
<path d="M0 0 C2.91517292 1.07401108 4.77810176 1.77810176 7 4 C7.125 7.125 7.125 7.125 7 10 C6.67 10 6.34 10 6 10 C5.938125 9.278125 5.87625 8.55625 5.8125 7.8125 C4.75543353 4.15342375 2.79449929 2.50788398 0 0 Z " fill="#63BCE7" transform="translate(1047,657)"/>
<path d="M0 0 C0.928125 0.165 1.85625 0.33 2.8125 0.5 C5.95621353 1.07748388 5.95621353 1.07748388 9 1 C7.8125 2.5625 7.8125 2.5625 6 4 C3.3125 3.6875 3.3125 3.6875 1 3 C0.67 2.01 0.34 1.02 0 0 Z " fill="#58AADA" transform="translate(1052,655)"/>
<path d="M0 0 C-0.33 0.99 -0.66 1.98 -1 3 C-3.875 3.125 -3.875 3.125 -7 3 C-7.66 2.34 -8.32 1.68 -9 1 C-6.04335481 -0.4783226 -3.25770263 -0.06032783 0 0 Z " fill="#A4E1F9" transform="translate(1353,656)"/>
</svg>
